<?xml version="1.0" standalone="no"?><!DOCTYPE svg PUBLIC "-//W3C//DTD SVG 1.1//EN" "http://www.w3.org/Graphics/SVG/1.1/DTD/svg11.dtd"><svg t="1491364999831" class="icon" style="" viewBox="0 0 1024 1024" version="1.1" xmlns="http://www.w3.org/2000/svg" p-id="3093" xmlns:xlink="http://www.w3.org/1999/xlink" width="200" height="200"><defs><style type="text/css"></style></defs><path d="M825.648978 441.708074 581.69892 441.708074 581.69892 197.760063c0-38.524408-31.208792-69.699432-69.700455-69.699432-38.489616 0-69.698408 31.174-69.698408 69.699432l0 243.948011L198.352045 441.708074c-38.491663 0-69.699432 31.174-69.699432 69.699432 0 38.458917 31.207769 69.699432 69.699432 69.699432l243.948011 0 0 243.950058c0 38.45687 31.209816 69.698408 69.698408 69.698408 38.491663 0 69.700455-31.241538 69.700455-69.698408L581.69892 581.105914l243.950058 0c38.488593 0 69.698408-31.240515 69.698408-69.699432C895.347386 472.882074 864.137571 441.708074 825.648978 441.708074z" p-id="3094" fill="#BEBBBF"></path></svg>