<?xml version="1.0" standalone="no"?><!DOCTYPE svg PUBLIC "-//W3C//DTD SVG 1.1//EN" "http://www.w3.org/Graphics/SVG/1.1/DTD/svg11.dtd"><svg t="1492056792853" class="icon" style="" viewBox="0 0 1024 1024" version="1.1" xmlns="http://www.w3.org/2000/svg" p-id="2475" xmlns:xlink="http://www.w3.org/1999/xlink" width="200" height="200"><defs><style type="text/css"></style></defs><path d="M798.539306 457.374457l-0.35442 0.085584c17.158175-38.807017 26.705374-81.730143 26.705374-126.889542 0-173.488772-140.640448-314.12922-314.12922-314.12922-173.488772 0-314.12922 140.640448-314.12922 314.12922 0 45.610479 9.733471 88.94441 27.21586 128.055504l-0.989759-0.244671 286.707958 567.128981L785.86475 482.294639c3.44553-6.235583 6.682636-12.602061 9.708299-19.087349L798.539306 457.374457zM510.761039 187.097709c79.238125 0 143.47279 64.234665 143.47279 143.471783 0 79.238125-64.234665 143.47279-143.47279 143.47279-79.237118 0-143.47279-64.234665-143.47279-143.47279C367.289256 251.332374 431.523921 187.097709 510.761039 187.097709z" p-id="2476" fill="#F15D63"></path></svg>