<?xml version="1.0" standalone="no"?><!DOCTYPE svg PUBLIC "-//W3C//DTD SVG 1.1//EN" "http://www.w3.org/Graphics/SVG/1.1/DTD/svg11.dtd"><svg t="1492081961923" class="icon" style="" viewBox="0 0 1024 1024" version="1.1" xmlns="http://www.w3.org/2000/svg" p-id="2367" xmlns:xlink="http://www.w3.org/1999/xlink" width="200" height="200"><defs><style type="text/css"></style></defs><path d="M123.26286 956.584588c-13.370519 0-26.759457-5.102205-36.945447-15.309684-20.412912-20.393469-20.412912-53.501518 0-73.891917L869.929484 83.769892c20.369933-20.412912 53.480029-20.412912 73.891917 0 20.412912 20.412912 20.412912 53.480029 0 73.892941L160.20933 941.274904C150.02334 951.482383 136.632355 956.584588 123.26286 956.584588z" p-id="2368" fill="#FFFFFF"></path><path d="M906.873907 956.584588c-13.388938 0-26.758434-5.102205-36.944424-15.309684L86.335832 157.703765c-20.411889-20.411889-20.411889-53.480029 0-73.892941 20.392446-20.411889 53.501518-20.411889 73.892941 0l783.592628 783.573185c20.412912 20.390399 20.412912 53.498448 0 73.891917C933.615968 951.482383 920.226007 956.584588 906.873907 956.584588z" p-id="2369" fill="#FFFFFF"></path></svg>