<?xml version="1.0" standalone="no"?><!DOCTYPE svg PUBLIC "-//W3C//DTD SVG 1.1//EN" "http://www.w3.org/Graphics/SVG/1.1/DTD/svg11.dtd"><svg t="1491284987972" class="icon" style="" viewBox="0 0 1024 1024" version="1.1" xmlns="http://www.w3.org/2000/svg" p-id="3276" xmlns:xlink="http://www.w3.org/1999/xlink" width="200" height="200"><defs><style type="text/css"></style></defs><path d="M248.867044 790.284027 366.383528 804.974611 243.972571 677.664064Z" p-id="3277" fill="#BEBBBF"></path><path d="M248.867044 790.284027 366.383528 804.974611 243.972571 677.664064Z" p-id="3278" fill="#BEBBBF"></path><path d="M860.932064 290.836925 738.521107 173.319417c-24.481577-24.482601-58.760289-19.588127-78.344323 0l-39.172161 39.173185 205.65487 200.75528 39.172161-39.172161C885.415688 349.598236 885.415688 315.320549 860.932064 290.836925z" p-id="3279" fill="#BEBBBF"></path><path d="M180.316785 658.08003l9.794064 186.066743c0 4.894474 4.894474 4.894474 4.894474 4.894474l186.066743 4.89345 401.515676-406.409127L576.932872 246.77029 180.316785 658.08003zM248.867044 790.284027l-4.894474-112.620987 122.410957 122.416074L248.867044 790.284027zM596.522022 339.804173c4.894474 4.894474 4.894474 14.688537 0 19.588127l-244.827031 244.826008c-4.894474 4.895497-4.894474 4.895497-9.794064 4.895497-4.894474 0-4.894474 0-9.78997-4.895497-4.89959-4.89345-4.89959-14.687514 0-19.588127l244.821915-244.826008C581.832462 334.908676 586.727958 334.908676 596.522022 339.804173z" p-id="3280" fill="#BEBBBF"></path></svg>