<?xml version="1.0" standalone="no"?><!DOCTYPE svg PUBLIC "-//W3C//DTD SVG 1.1//EN" "http://www.w3.org/Graphics/SVG/1.1/DTD/svg11.dtd"><svg t="1491534111587" class="icon" style="" viewBox="0 0 1024 1024" version="1.1" xmlns="http://www.w3.org/2000/svg" p-id="4217" xmlns:xlink="http://www.w3.org/1999/xlink" width="200" height="200"><defs><style type="text/css"></style></defs><path d="M955.751933 525.166726c12.941379 12.318991 19.723262 25.904219 20.34565 40.6913s-4.313793 27.148995-14.787081 36.999895c-11.696603 10.473288-25.281831 15.388007-40.6913 14.787081-15.409469-0.622388-27.72846-4.914719-36.978434-12.96284-3.090478-2.425167-12.512146-11.117138-28.200616-25.904219-15.709932-14.765619-34.510343-32.535871-56.401232-53.139061-21.890889-20.689037-45.305556-42.858927-70.244001-66.595519-24.959906-23.693668-48.546266-46.056714-70.737619-67.024752s-41.270765-39.124599-57.324084-54.534068c-16.010395-15.388007-26.183221-24.981368-30.518475-28.651311-19.723262-17.87756-39.103138-26.505145-58.268396-25.925681-19.079412 0.64385-37.879823 9.271435-56.379771 25.925681-6.159495 5.537107-17.705866 16.160627-34.660575 31.870559-16.933247 15.688471-36.506277 34.038187-58.676168 55.006225-22.212814 20.946576-45.648943 42.816004-70.244001 65.651206-24.680905 22.81374-47.494645 44.06078-68.441221 63.784042-20.968038 19.744724-38.952906 36.506277-54.083374 50.391969s-24.187286 22.041121-27.256303 24.530673c-9.271435 7.38281-21.590426 11.396139-37.021357 12.018527-15.409469 0.622388-28.651311-4.01333-39.789911-13.86423-12.276067-11.095676-18.156561-24.509211-17.534173-40.219144 0.622388-15.709932 5.83757-28.179155 15.731394-37.429128 3.691405-3.691405 15.087544-14.465156 34.20988-32.364177 19.100874-17.87756 41.871691-39.146061 68.41976-63.805504 26.483684-24.637981 55.006225-51.164588 85.503238-79.515436 30.518475-28.329386 58.847861-54.855993 85.052543-79.515436 26.226144-24.637981 48.717959-45.734789 67.496909-63.311886 18.821872-17.577096 29.767317-27.900153 32.814872-30.947708 23.436129-22.81374 48.717959-34.381573 75.824031-34.660575 27.106072-0.343386 50.220275 8.777817 69.321149 27.256303 3.691405 3.11194 11.396139 10.344518 23.114204 21.762119s26.054451 25.260369 42.987697 41.59269c16.97617 16.353782 35.926812 34.660575 56.830465 55.027686 20.968038 20.324188 42.236539 40.777147 63.848427 61.444722 21.547503 20.667575 42.665772 41.163457 63.290424 61.487645 20.667575 20.34565 39.618217 38.695366 56.830465 55.006225 17.276633 16.33232 31.763251 30.32532 43.459854 42.064846L955.751933 525.166726zM455.588037 391.117222c15.409469-14.164693 33.909417-21.719196 55.478381-22.663509 21.590426-0.90139 40.991763 6.653113 58.246935 22.663509 1.867164 1.845702 7.404271 7.082347 16.632784 15.709932l35.154193 32.364177c13.563767 12.96284 28.801543 27.406535 45.756251 43.438392s34.381573 32.042253 52.237671 48.07411c41.292226 38.201748 87.520634 81.039214 138.706684 128.490935l0 175.685117c0 13.585228-5.107874 25.560832-15.259238 36.055582-10.194287 10.473288-23.886823 16.053319-41.163457 16.632784l-174.740804 0L626.637436 744.290235c0-20.34565-9.528975-30.497013-28.651311-30.497013l-176.607968 0c-10.473288 0-17.727328 3.069017-21.719196 9.249974-4.034791 6.138034-6.030725 13.22038-6.030725 21.24704 0 3.712867-0.12877 13.09161-0.429233 28.179155-0.343386 15.087544-0.472156 31.312556-0.472156 48.546266l0 66.574057-169.203697 0c-17.856098 0-32.020791-3.991868-42.494079-12.018527s-15.709932-19.422799-15.709932-34.20988L165.319137 657.370528c50.520739-46.228407 96.448683-88.100099 137.740909-125.743843 17.276633-15.967472 34.510343-31.849098 51.765515-47.601953 17.276633-15.688471 32.965104-30.024857 47.151259-42.987697 14.207616-12.96284 26.032989-23.886823 35.604888-32.814872C447.110683 399.272651 453.119946 393.585312 455.588037 391.117222L455.588037 391.117222zM455.588037 391.117222" p-id="4218" fill="#BEBBBF"></path></svg>