<?xml version="1.0" standalone="no"?><!DOCTYPE svg PUBLIC "-//W3C//DTD SVG 1.1//EN" "http://www.w3.org/Graphics/SVG/1.1/DTD/svg11.dtd"><svg t="1491540537066" class="icon" style="" viewBox="0 0 1034 1024" version="1.1" xmlns="http://www.w3.org/2000/svg" p-id="4198" xmlns:xlink="http://www.w3.org/1999/xlink" width="201.953125" height="200"><defs><style type="text/css"></style></defs><path d="M953.191489 0h-882.382978c-38.12766 0-70.808511 32.680851-70.808511 70.808511v669.957446c0 38.12766 32.680851 70.808511 70.808511 70.808511h256l136.170212 185.191489 5.446809 5.446809c10.893617 10.893617 32.680851 21.787234 49.021277 21.787234s32.680851-5.446809 49.021276-21.787234l136.170213-190.638298h256c38.12766 0 70.808511-32.680851 70.808511-70.808511V65.361702c-10.893617-38.12766-38.12766-65.361702-76.25532-65.361702z m-16.340425 718.978723h-250.553192c-16.340426 0-32.680851 5.446809-49.021276 21.787234l-130.723405 179.744681-125.276595-174.297872-5.446809-5.446809c-10.893617-10.893617-32.680851-21.787234-49.021276-21.787234h-250.553192v-642.723404h855.148936V718.978723z" fill="#BEBBBF" p-id="4199"></path><path d="M299.574468 326.808511h430.297872c21.787234 0 43.574468-16.340426 43.574469-43.574468s-16.340426-43.574468-43.574469-43.574469h-430.297872c-21.787234 0-43.574468 16.340426-43.574468 43.574469s16.340426 43.574468 43.574468 43.574468zM299.574468 571.914894h430.297872c21.787234 0 43.574468-16.340426 43.574469-43.574468s-16.340426-43.574468-43.574469-43.574469h-430.297872c-21.787234 0-43.574468 16.340426-43.574468 43.574469s16.340426 43.574468 43.574468 43.574468z" fill="#BEBBBF" p-id="4200"></path></svg>