<?xml version="1.0" standalone="no"?><!DOCTYPE svg PUBLIC "-//W3C//DTD SVG 1.1//EN" "http://www.w3.org/Graphics/SVG/1.1/DTD/svg11.dtd"><svg t="1491284783215" class="icon" style="" viewBox="0 0 1024 1024" version="1.1" xmlns="http://www.w3.org/2000/svg" p-id="2362" xmlns:xlink="http://www.w3.org/1999/xlink" width="200" height="200"><defs><style type="text/css"></style></defs><path d="M76.2094 308.67l871.1126 0c33.93 0 61.452-27.028 61.452-60.37 0-33.338-27.522-60.366-61.452-60.366l-871.1126 0c-33.929 0-61.4508 27.028-61.4508 60.366 0 33.342 27.5218 60.37 61.4508 60.37" p-id="2363" fill="#BEBBBF"></path><path d="M76.2094 569.276l871.1126 0c33.93 0 61.452-27.032 61.452-60.37 0-33.34-27.522-60.396-61.452-60.396l-871.1126 0c-33.929 0-61.4508 27.056-61.4508 60.396 0 33.338 27.5218 60.37 61.4508 60.37" p-id="2364" fill="#BEBBBF"></path><path d="M76.2094 829.8782l871.1126 0c33.93 0 61.452-27.0522 61.452-60.3942 0-33.34-27.522-60.394-61.452-60.394l-871.1126 0c-33.929 0-61.4508 27.054-61.4508 60.394 0 33.342 27.5218 60.3942 61.4508 60.3942" p-id="2365" fill="#BEBBBF"></path></svg>