<?xml version="1.0" standalone="no"?><!DOCTYPE svg PUBLIC "-//W3C//DTD SVG 1.1//EN" "http://www.w3.org/Graphics/SVG/1.1/DTD/svg11.dtd"><svg t="1491532033978" class="icon" style="" viewBox="0 0 1024 1024" version="1.1" xmlns="http://www.w3.org/2000/svg" p-id="2362" xmlns:xlink="http://www.w3.org/1999/xlink" width="200" height="200"><defs><style type="text/css"></style></defs><path d="M398.099 331.933l180 179.989-182.348 182.359c-5.947 6.185-9.628 14.571-9.628 23.841 0 18.979 15.377 34.354 34.353 34.354 9.272 0 17.658-3.68 23.844-9.628l0.011 0.010 206.111-206.134c6.477-6.249 10.511-15.007 10.511-24.724 0-0.023 0-0.057 0-0.078 0-0.023 0-0.047 0-0.068 0-9.717-4.035-18.475-10.511-24.724l0.012-0.012-206.213-206.035c-6.173-5.914-14.538-9.561-23.764-9.561-18.976 0-34.353 15.375-34.353 34.354-0.002 10.421 4.64 19.759 11.976 26.054z" p-id="2363" fill="#BEBBBF"></path></svg>